<mxfile host="app.diagrams.net" modified="2022-11-19T13:00:41.291Z" agent="5.0 (Windows NT 10.0; Win64; x64) AppleWebKit/537.36 (KHTML, like Gecko) Chrome/107.0.0.0 Safari/537.36" etag="Euq0vdbzX_AlU25klsZU" version="20.5.1" type="github" pages="3">
  <diagram id="R2lEEEUBdFMjLlhIrx00" name="Main Database">
    <mxGraphModel dx="1038" dy="539" grid="1" gridSize="10" guides="1" tooltips="1" connect="1" arrows="1" fold="1" page="1" pageScale="1" pageWidth="827" pageHeight="1169" math="0" shadow="0" extFonts="Permanent Marker^https://fonts.googleapis.com/css?family=Permanent+Marker">
      <root>
        <mxCell id="0" />
        <mxCell id="1" parent="0" />
        <mxCell id="pP9zIYHs6LU0-1jrcYSO-6" value="&lt;p style=&quot;margin:0px;margin-top:6px;text-align:center;&quot;&gt;&lt;b&gt;Customer&lt;/b&gt;&lt;/p&gt;&lt;hr&gt;&lt;p style=&quot;margin:0px;margin-left:8px;&quot;&gt;+ Cust_ID : UUID&lt;/p&gt;&lt;p style=&quot;margin:0px;margin-left:8px;&quot;&gt;+ Cust_Name : String&lt;/p&gt;&lt;p style=&quot;margin:0px;margin-left:8px;&quot;&gt;+ Sign_Up : Date&lt;/p&gt;&lt;p style=&quot;margin:0px;margin-left:8px;&quot;&gt;+ Email : String&lt;/p&gt;&lt;p style=&quot;margin:0px;margin-left:8px;&quot;&gt;+ Phone : int(?) String&lt;/p&gt;&lt;p style=&quot;margin:0px;margin-left:8px;&quot;&gt;+ Addrress : String&lt;/p&gt;" style="align=left;overflow=fill;html=1;dropTarget=0;" vertex="1" parent="1">
          <mxGeometry x="24" y="210" width="180" height="140" as="geometry" />
        </mxCell>
        <mxCell id="pP9zIYHs6LU0-1jrcYSO-7" value="" style="shape=component;jettyWidth=8;jettyHeight=4;" vertex="1" parent="pP9zIYHs6LU0-1jrcYSO-6">
          <mxGeometry x="1" width="20" height="20" relative="1" as="geometry">
            <mxPoint x="-24" y="4" as="offset" />
          </mxGeometry>
        </mxCell>
        <mxCell id="UmgTyD-XWOnBGixI6zab-1" value="&lt;p style=&quot;margin:0px;margin-top:6px;text-align:center;&quot;&gt;&lt;b&gt;Delivery Employee&lt;/b&gt;&lt;/p&gt;&lt;hr&gt;&lt;p style=&quot;margin:0px;margin-left:8px;&quot;&gt;+ Employee_ID : UUID&lt;br&gt;&lt;/p&gt;&lt;p style=&quot;margin:0px;margin-left:8px;&quot;&gt;+ Employee_Name: String&lt;/p&gt;&lt;p style=&quot;margin:0px;margin-left:8px;&quot;&gt;+ Contact : int(?) String&lt;/p&gt;&lt;p style=&quot;margin:0px;margin-left:8px;&quot;&gt;+ Addreess : String&lt;/p&gt;" style="align=left;overflow=fill;html=1;dropTarget=0;" vertex="1" parent="1">
          <mxGeometry x="284" y="210" width="180" height="110" as="geometry" />
        </mxCell>
        <mxCell id="UmgTyD-XWOnBGixI6zab-2" value="" style="shape=component;jettyWidth=8;jettyHeight=4;" vertex="1" parent="UmgTyD-XWOnBGixI6zab-1">
          <mxGeometry x="1" width="20" height="20" relative="1" as="geometry">
            <mxPoint x="-24" y="4" as="offset" />
          </mxGeometry>
        </mxCell>
        <mxCell id="UmgTyD-XWOnBGixI6zab-3" value="&lt;p style=&quot;margin:0px;margin-top:6px;text-align:center;&quot;&gt;&lt;b&gt;Delivery Details&lt;/b&gt;&lt;/p&gt;&lt;hr&gt;&lt;p style=&quot;margin:0px;margin-left:8px;&quot;&gt;+Delivery_ID : UUID&lt;/p&gt;&lt;p style=&quot;margin:0px;margin-left:8px;&quot;&gt;+ Date_Of_Delivery : Date&lt;/p&gt;&lt;p style=&quot;margin:0px;margin-left:8px;&quot;&gt;+ Delivery_Content : Product_ID (Related)&lt;/p&gt;&lt;p style=&quot;margin:0px;margin-left:8px;&quot;&gt;+ Scheduled_Time : Date&lt;/p&gt;&lt;p style=&quot;margin:0px;margin-left:8px;&quot;&gt;+ Personal_ID : Employee_ID (Related)&lt;/p&gt;" style="align=left;overflow=fill;html=1;dropTarget=0;" vertex="1" parent="1">
          <mxGeometry x="544" y="215" width="250" height="130" as="geometry" />
        </mxCell>
        <mxCell id="UmgTyD-XWOnBGixI6zab-4" value="" style="shape=component;jettyWidth=8;jettyHeight=4;" vertex="1" parent="UmgTyD-XWOnBGixI6zab-3">
          <mxGeometry x="1" width="20" height="20" relative="1" as="geometry">
            <mxPoint x="-24" y="4" as="offset" />
          </mxGeometry>
        </mxCell>
        <mxCell id="UmgTyD-XWOnBGixI6zab-5" value="&lt;p style=&quot;margin:0px;margin-top:6px;text-align:center;&quot;&gt;&lt;b&gt;Product&lt;/b&gt;&lt;/p&gt;&lt;hr&gt;&lt;p style=&quot;margin:0px;margin-left:8px;&quot;&gt;+ Product_ID : UUID&lt;/p&gt;&lt;p style=&quot;margin:0px;margin-left:8px;&quot;&gt;+ Product_Name : String&lt;/p&gt;&lt;p style=&quot;margin:0px;margin-left:8px;&quot;&gt;+ Product_Description : String&lt;/p&gt;&lt;p style=&quot;margin:0px;margin-left:8px;&quot;&gt;+ Product_Amount : float&lt;/p&gt;" style="align=left;overflow=fill;html=1;dropTarget=0;" vertex="1" parent="1">
          <mxGeometry x="24" y="410" width="180" height="110" as="geometry" />
        </mxCell>
        <mxCell id="UmgTyD-XWOnBGixI6zab-6" value="" style="shape=component;jettyWidth=8;jettyHeight=4;" vertex="1" parent="UmgTyD-XWOnBGixI6zab-5">
          <mxGeometry x="1" width="20" height="20" relative="1" as="geometry">
            <mxPoint x="-24" y="4" as="offset" />
          </mxGeometry>
        </mxCell>
        <mxCell id="T0kVEuVDd7RmYPfhUP_d-3" value="&lt;p style=&quot;margin:0px;margin-top:6px;text-align:center;&quot;&gt;&lt;b&gt;Subscription Order&lt;/b&gt;&lt;/p&gt;&lt;hr&gt;&lt;p style=&quot;margin:0px;margin-left:8px;&quot;&gt;+ Order_ID : Product_ID (Related)&lt;/p&gt;&lt;p style=&quot;margin:0px;margin-left:8px;&quot;&gt;+ Transaction_ID : Trans_ID (Related) (Unique)&lt;/p&gt;&lt;p style=&quot;margin:0px;margin-left:8px;&quot;&gt;+ Subscription_Order_Date : Date&amp;nbsp;&lt;/p&gt;" style="align=left;overflow=fill;html=1;dropTarget=0;" vertex="1" parent="1">
          <mxGeometry x="254" y="410" width="280" height="100" as="geometry" />
        </mxCell>
        <mxCell id="T0kVEuVDd7RmYPfhUP_d-4" value="" style="shape=component;jettyWidth=8;jettyHeight=4;" vertex="1" parent="T0kVEuVDd7RmYPfhUP_d-3">
          <mxGeometry x="1" width="20" height="20" relative="1" as="geometry">
            <mxPoint x="-24" y="4" as="offset" />
          </mxGeometry>
        </mxCell>
        <mxCell id="T0kVEuVDd7RmYPfhUP_d-6" value="&lt;p style=&quot;margin:0px;margin-top:6px;text-align:center;&quot;&gt;&lt;b&gt;Transaction&lt;/b&gt;&lt;/p&gt;&lt;hr&gt;&lt;p style=&quot;margin:0px;margin-left:8px;&quot;&gt;+ Transaction_ID : UUID (Unique)&lt;/p&gt;&lt;p style=&quot;margin:0px;margin-left:8px;&quot;&gt;+ Transaction_Amount : float&lt;/p&gt;&lt;p style=&quot;margin:0px;margin-left:8px;&quot;&gt;+ Transaction_Date : Date&lt;/p&gt;&lt;p style=&quot;margin:0px;margin-left:8px;&quot;&gt;+ Status : (Pending/Success/Failure)&lt;/p&gt;" style="align=left;overflow=fill;html=1;dropTarget=0;" vertex="1" parent="1">
          <mxGeometry x="584" y="410" width="220" height="120" as="geometry" />
        </mxCell>
        <mxCell id="T0kVEuVDd7RmYPfhUP_d-7" value="" style="shape=component;jettyWidth=8;jettyHeight=4;" vertex="1" parent="T0kVEuVDd7RmYPfhUP_d-6">
          <mxGeometry x="1" width="20" height="20" relative="1" as="geometry">
            <mxPoint x="-24" y="4" as="offset" />
          </mxGeometry>
        </mxCell>
        <mxCell id="7ddv4cWyjnsOW6j2Cdh4-1" value="Main Database&amp;nbsp;&lt;br&gt;(Definitions)" style="text;html=1;strokeColor=none;fillColor=none;align=center;verticalAlign=middle;whiteSpace=wrap;rounded=0;fontSize=25;" vertex="1" parent="1">
          <mxGeometry x="274" y="40" width="280" height="120" as="geometry" />
        </mxCell>
      </root>
    </mxGraphModel>
  </diagram>
  <diagram id="XB3KTdIwo1CCrc___fvj" name="Credential Database">
    <mxGraphModel dx="1038" dy="539" grid="1" gridSize="10" guides="1" tooltips="1" connect="1" arrows="1" fold="1" page="1" pageScale="1" pageWidth="827" pageHeight="1169" math="0" shadow="0">
      <root>
        <mxCell id="0" />
        <mxCell id="1" parent="0" />
        <mxCell id="TAMbc6Ra9dEEd1ABG5EC-1" value="&lt;p style=&quot;margin:0px;margin-top:6px;text-align:center;&quot;&gt;&lt;b&gt;Customer Credential&lt;/b&gt;&lt;/p&gt;&lt;hr&gt;&lt;p style=&quot;margin:0px;margin-left:8px;&quot;&gt;+ User_Name : String (Uniquie)&lt;/p&gt;&lt;p style=&quot;margin:0px;margin-left:8px;&quot;&gt;&lt;br&gt;&lt;/p&gt;&lt;p style=&quot;margin:0px;margin-left:8px;&quot;&gt;+ password : String (Hashed)&lt;/p&gt;&lt;p style=&quot;margin:0px;margin-left:8px;&quot;&gt;&lt;br&gt;&lt;/p&gt;&lt;p style=&quot;margin:0px;margin-left:8px;&quot;&gt;+ Customer_ID : UUID (Unique)&lt;/p&gt;" style="align=left;overflow=fill;html=1;dropTarget=0;" vertex="1" parent="1">
          <mxGeometry x="40" y="40" width="180" height="130" as="geometry" />
        </mxCell>
        <mxCell id="TAMbc6Ra9dEEd1ABG5EC-2" value="" style="shape=component;jettyWidth=8;jettyHeight=4;" vertex="1" parent="TAMbc6Ra9dEEd1ABG5EC-1">
          <mxGeometry x="1" width="20" height="20" relative="1" as="geometry">
            <mxPoint x="-24" y="4" as="offset" />
          </mxGeometry>
        </mxCell>
        <mxCell id="TAMbc6Ra9dEEd1ABG5EC-3" value="&lt;p style=&quot;margin:0px;margin-top:6px;text-align:center;&quot;&gt;&lt;b&gt;Service Credential&lt;/b&gt;&lt;/p&gt;&lt;hr&gt;&lt;p style=&quot;margin:0px;margin-left:8px;&quot;&gt;+ User_Name : String (Unique)&lt;/p&gt;&lt;p style=&quot;margin:0px;margin-left:8px;&quot;&gt;&lt;br&gt;&lt;/p&gt;&lt;p style=&quot;margin:0px;margin-left:8px;&quot;&gt;+ Password : String (Hashed)&lt;/p&gt;&lt;p style=&quot;margin:0px;margin-left:8px;&quot;&gt;&lt;br&gt;&lt;/p&gt;&lt;p style=&quot;margin:0px;margin-left:8px;&quot;&gt;+ Staff_ID : UUID (Unique)&lt;/p&gt;&lt;p style=&quot;margin:0px;margin-left:8px;&quot;&gt;&lt;br&gt;&lt;/p&gt;&lt;p style=&quot;margin:0px;margin-left:8px;&quot;&gt;+ Staff_Type : Enum (?)&lt;/p&gt;" style="align=left;overflow=fill;html=1;dropTarget=0;" vertex="1" parent="1">
          <mxGeometry x="40" y="230" width="180" height="150" as="geometry" />
        </mxCell>
        <mxCell id="TAMbc6Ra9dEEd1ABG5EC-4" value="" style="shape=component;jettyWidth=8;jettyHeight=4;" vertex="1" parent="TAMbc6Ra9dEEd1ABG5EC-3">
          <mxGeometry x="1" width="20" height="20" relative="1" as="geometry">
            <mxPoint x="-24" y="4" as="offset" />
          </mxGeometry>
        </mxCell>
        <mxCell id="TAMbc6Ra9dEEd1ABG5EC-5" value="-- User_Name: A Unique String that the users can remember during login (cannot expect them to remember cust_ID.&lt;br&gt;&lt;br&gt;-- Password: Hashed password. Hashing should be done on client and server side.&lt;br&gt;&lt;br&gt;-- Customer_ID : Do we even need this? User_Name is already unique&amp;nbsp;" style="shape=note;whiteSpace=wrap;html=1;backgroundOutline=1;darkOpacity=0.05;" vertex="1" parent="1">
          <mxGeometry x="590" y="20" width="230" height="260" as="geometry" />
        </mxCell>
        <mxCell id="TAMbc6Ra9dEEd1ABG5EC-6" value="" style="endArrow=none;dashed=1;html=1;dashPattern=1 3;strokeWidth=2;rounded=0;exitX=0.998;exitY=0.349;exitDx=0;exitDy=0;exitPerimeter=0;entryX=0.007;entryY=0.251;entryDx=0;entryDy=0;entryPerimeter=0;" edge="1" parent="1" source="TAMbc6Ra9dEEd1ABG5EC-1" target="TAMbc6Ra9dEEd1ABG5EC-5">
          <mxGeometry width="50" height="50" relative="1" as="geometry">
            <mxPoint x="310" y="100" as="sourcePoint" />
            <mxPoint x="360" y="50" as="targetPoint" />
          </mxGeometry>
        </mxCell>
        <mxCell id="TAMbc6Ra9dEEd1ABG5EC-7" value="-- User_Name : Unique String for the staff to login&lt;br&gt;&lt;br&gt;--Password: Hashed Password&lt;br&gt;&lt;br&gt;--Staff_ID : Staff ID that is unique to every staff. We will not delete staff database, just archive it.&lt;br&gt;&lt;br&gt;--Staff_Type: Describes the type of staffs.&lt;br&gt;(E.g: Kitchen, delivery, executive)" style="shape=note;whiteSpace=wrap;html=1;backgroundOutline=1;darkOpacity=0.05;" vertex="1" parent="1">
          <mxGeometry x="350" y="230" width="220" height="260" as="geometry" />
        </mxCell>
        <mxCell id="TAMbc6Ra9dEEd1ABG5EC-8" value="" style="endArrow=none;dashed=1;html=1;dashPattern=1 3;strokeWidth=2;rounded=0;exitX=1;exitY=0.25;exitDx=0;exitDy=0;entryX=0.007;entryY=0.155;entryDx=0;entryDy=0;entryPerimeter=0;" edge="1" parent="1" source="TAMbc6Ra9dEEd1ABG5EC-3" target="TAMbc6Ra9dEEd1ABG5EC-7">
          <mxGeometry width="50" height="50" relative="1" as="geometry">
            <mxPoint x="390" y="270" as="sourcePoint" />
            <mxPoint x="440" y="220" as="targetPoint" />
          </mxGeometry>
        </mxCell>
      </root>
    </mxGraphModel>
  </diagram>
  <diagram id="2pj9aHvIkLm3j_D929aE" name="Order Database">
    <mxGraphModel dx="1038" dy="539" grid="1" gridSize="10" guides="1" tooltips="1" connect="1" arrows="1" fold="1" page="1" pageScale="1" pageWidth="827" pageHeight="1169" math="0" shadow="0">
      <root>
        <mxCell id="0" />
        <mxCell id="1" parent="0" />
        <mxCell id="p2l3z_85-FVGjrdwPl05-1" value="&lt;p style=&quot;margin:0px;margin-top:6px;text-align:center;&quot;&gt;&lt;b&gt;Daily Order&lt;/b&gt;&lt;/p&gt;&lt;hr&gt;&lt;p style=&quot;margin:0px;margin-left:8px;&quot;&gt;+ Order_ID : UUID (Unique)&lt;/p&gt;&lt;p style=&quot;margin:0px;margin-left:8px;&quot;&gt;+ Order_Date : Date&amp;nbsp;&lt;/p&gt;&lt;p style=&quot;margin:0px;margin-left:8px;&quot;&gt;+ Scheduled_Time : Time&amp;nbsp;&lt;/p&gt;&lt;p style=&quot;margin:0px;margin-left:8px;&quot;&gt;+ Subscription_ID : Product_ID (Related)&lt;/p&gt;&lt;p style=&quot;margin:0px;margin-left:8px;&quot;&gt;+ Status : (Rescheduled/Cancelled/Completed/Pending)&lt;/p&gt;" style="align=left;overflow=fill;html=1;dropTarget=0;" vertex="1" parent="1">
          <mxGeometry x="40" y="80" width="320" height="120" as="geometry" />
        </mxCell>
        <mxCell id="p2l3z_85-FVGjrdwPl05-2" value="" style="shape=component;jettyWidth=8;jettyHeight=4;" vertex="1" parent="p2l3z_85-FVGjrdwPl05-1">
          <mxGeometry x="1" width="20" height="20" relative="1" as="geometry">
            <mxPoint x="-24" y="4" as="offset" />
          </mxGeometry>
        </mxCell>
        <mxCell id="p2l3z_85-FVGjrdwPl05-6" style="edgeStyle=orthogonalEdgeStyle;rounded=0;orthogonalLoop=1;jettySize=auto;html=1;" edge="1" parent="1" source="p2l3z_85-FVGjrdwPl05-3" target="p2l3z_85-FVGjrdwPl05-5">
          <mxGeometry relative="1" as="geometry" />
        </mxCell>
        <mxCell id="p2l3z_85-FVGjrdwPl05-3" value="&lt;p style=&quot;margin:0px;margin-top:6px;text-align:center;&quot;&gt;&lt;b&gt;Backup (Monthly)&lt;/b&gt;&lt;/p&gt;&lt;hr&gt;&lt;p style=&quot;margin:0px;margin-left:8px;&quot;&gt;+ Order_ID : UUID (Unique)&lt;/p&gt;&lt;p style=&quot;margin:0px;margin-left:8px;&quot;&gt;+ Order_Date : Date&lt;/p&gt;&lt;p style=&quot;margin:0px;margin-left:8px;&quot;&gt;+ Scheduled_Time : DateTime&lt;/p&gt;&lt;p style=&quot;margin:0px;margin-left:8px;&quot;&gt;+ Subscription_ID : Product_ID (Related)&lt;/p&gt;&lt;p style=&quot;margin:0px;margin-left:8px;&quot;&gt;+ Status : (Rescheduled/Cancelled/Completed/Pending)&lt;/p&gt;" style="align=left;overflow=fill;html=1;dropTarget=0;" vertex="1" parent="1">
          <mxGeometry x="40" y="320" width="330" height="120" as="geometry" />
        </mxCell>
        <mxCell id="p2l3z_85-FVGjrdwPl05-4" value="" style="shape=component;jettyWidth=8;jettyHeight=4;" vertex="1" parent="p2l3z_85-FVGjrdwPl05-3">
          <mxGeometry x="1" width="20" height="20" relative="1" as="geometry">
            <mxPoint x="-24" y="4" as="offset" />
          </mxGeometry>
        </mxCell>
        <mxCell id="p2l3z_85-FVGjrdwPl05-5" value="We can store monthly backups on Google Drive or something" style="shape=note;whiteSpace=wrap;html=1;backgroundOutline=1;darkOpacity=0.05;" vertex="1" parent="1">
          <mxGeometry x="530" y="320" width="210" height="180" as="geometry" />
        </mxCell>
      </root>
    </mxGraphModel>
  </diagram>
</mxfile>
